<svg viewBox="0 0 556 106" xmlns="http://www.w3.org/2000/svg">
    <path
        d="M56.4862 3L40.0031 35.107L3 40.7926L30.2477 66.5452L23.5199 103L56.4862 86.9465L89.4526 103L83.7339 66.5452L108.963 40.7926L73.3058 35.107L56.4862 3Z" />
    <path
        d="M167.495 3L151.012 35.107L114.009 40.7926L141.257 66.5452L134.529 103L167.495 86.9465L200.462 103L194.743 66.5452L219.972 40.7926L184.315 35.107L167.495 3Z" />
    <path
        d="M278.505 3L262.021 35.107L225.018 40.7926L252.266 66.5452L245.538 103L278.505 86.9465L311.471 103L305.752 66.5452L330.982 40.7926L295.324 35.107L278.505 3Z" />
    <path
        d="M389.514 3L373.031 35.107L336.028 40.7926L363.275 66.5452L356.547 103L389.514 86.9465L422.48 103L416.762 66.5452L441.991 40.7926L406.333 35.107L389.514 3Z" />
    <path
        d="M500.523 3L484.04 35.107L447.037 40.7926L474.284 66.5452L467.556 103L500.523 86.9465L533.489 103L527.771 66.5452L553 40.7926L517.342 35.107L500.523 3Z" />
</svg>