<svg viewBox="0 0 476 91" xmlns="http://www.w3.org/2000/svg">
    <path
        d="M61 32L48 0L35 32L0 34.5V0H48H143H238H333H428H475.5V34.5L441 32L428 0L415 32L380.5 34.5L346 32L333 0L320 32L285.5 34.5L251 32L238 0L225 32L190.5 34.5L156 32L143 0L130 32L95.5 34.5L61 32Z" />
    <path
        d="M449.5 57L475.5 34.5V90.5H457.5H398.5H362.5H303.5H267.5H208.5H172.5H113.5H77.5H18.5H0V34.5L26.5 57L18.5 90.5L48 72.5L77.5 90.5L69.5 57L95.5 34.5L121.5 57L113.5 90.5L143 72.5L172.5 90.5L164.5 57L190.5 34.5L216.5 57L208.5 90.5L238 72.5L267.5 90.5L259.5 57L285.5 34.5L311.5 57L303.5 90.5L333 72.5L362.5 90.5L354.5 57L380.5 34.5L406.5 57L398.5 90.5L428 72.5L457.5 90.5L449.5 57Z" />
</svg>